<svg width="207" height="113" viewBox="0 0 207 113" fill="none" xmlns="http://www.w3.org/2000/svg">
<path fill-rule="evenodd" clip-rule="evenodd" d="M128.01 2.3923C114.112 2.31412 97.6698 7.06961 78.6846 16.76C114.047 -6.33684 144.296 -4.90651 187.941 17.0175C184.409 17.2245 182.643 17.3303 182.643 17.3303C161.492 6.49472 143.229 2.20374 128.006 2.3923" fill="white"/>
<path fill-rule="evenodd" clip-rule="evenodd" d="M178.044 22.0628C187.173 19.8875 194.205 18.6595 199.135 18.3789C196.666 17.4683 189.624 18.4479 176.646 20.5175C159.578 22.6147 145.62 22.7987 134.771 21.0694C130.834 20.421 126.823 19.7219 122.73 18.9676C122.505 18.8848 122.394 18.8481 122.394 18.8481C124.298 18.3468 126.101 18.1352 127.55 17.8179C131.882 16.8704 133.818 15.7712 133.883 13.5545C133.956 11.7884 131.524 10.2293 128.346 10.2799C124.193 10.4868 121.129 12.699 119.152 16.921C122.422 12.7818 125.821 10.933 129.344 11.3837C130.852 11.5998 131.744 12.5932 131.85 13.3475C131.993 14.3639 130.811 15.4539 128.897 16.3875C126.69 17.289 120.679 17.8316 120.361 18.5629C117.441 18.2318 114.856 17.9696 112.598 17.7857C120.775 10.5098 128.92 6.31544 139.158 5.81874C147.846 5.86473 156.699 10.2109 165.718 18.8573C159.288 10.9606 151.658 6.20046 142.865 4.20444C133.786 2.36939 122.748 6.55459 109.751 17.3119C101.036 15.7206 91.7227 15.8172 81.8622 17.0268C92.4815 16.7601 98.9893 17.0544 101.385 17.9052C92.4908 19.3724 85.8128 23.3506 81.3471 29.84C86.4107 23.9163 92.6333 20.5543 100.02 19.7587C105.069 19.101 112.028 19.7311 120.89 21.6581C130.627 24.0359 138.054 25.2086 143.173 25.1765C153.871 25.48 165.497 24.4452 178.044 22.072" fill="white"/>
<path fill-rule="evenodd" clip-rule="evenodd" d="M113.743 61.6106C131.206 54.9373 152.477 49.7771 177.556 46.1254C155.057 47.335 135.336 50.6463 117.639 55.2317C118.996 48.3376 118.766 42.2299 117.363 36.9133C116.415 33.3214 115.049 30.0928 112.846 27.2184C107.208 20.8486 100.59 19.5884 92.6149 23.1987C89.5841 24.7762 86.5947 27.5403 83.872 32.0475C90.6833 23.7277 97.8119 21.3913 105.258 25.0476C111.922 29.1408 115.555 36.4764 116.158 47.0544C116.02 53.4932 115.215 58.3453 113.743 61.6106Z" fill="white"/>
<path fill-rule="evenodd" clip-rule="evenodd" d="M75.0053 70.749C71.349 70.9099 69.5231 70.9881 69.5231 70.9881C65.8438 59.6651 68.3963 47.5924 77.1807 34.77C67.196 47.3348 64.0226 60.1894 67.6605 73.3337C72.5585 71.609 75.0053 70.749 75.0053 70.749Z" fill="white"/>
<path fill-rule="evenodd" clip-rule="evenodd" d="M59.2072 81.4789C70.1761 80.8304 77.0058 79.9566 79.6963 78.8574C78.9742 78.3331 78.0912 77.3351 76.8356 75.5598C62.1414 80.3521 44.4348 80.6096 30.4397 76.0289C36.9566 79.883 46.5458 81.6996 59.2072 81.4789Z" fill="white"/>
<path fill-rule="evenodd" clip-rule="evenodd" d="M47.8611 64.922C39.8402 64.7012 32.2333 62.7972 27.1466 59.9365C36.3817 62.9167 45.465 64.2689 51.775 63.6802C48.1003 67.9068 44.3704 70.5283 41.1004 71.1308C45.0694 68.9968 47.323 66.9272 47.8611 64.922ZM44.7567 66.1637C36.6346 65.3957 30.3568 63.0731 25.9233 59.196C37.8626 62.7052 49.2454 63.3031 60.0718 60.9897C49.6916 73.6281 38.6767 76.5026 27.0271 69.6131C36.2897 72.1886 42.1996 71.0388 44.7567 66.1637Z" fill="white"/>
<path fill-rule="evenodd" clip-rule="evenodd" d="M56.158 56.6435C49.986 57.6001 45.4834 58.083 42.655 58.0922C45.8882 55.3695 48.1095 53.677 49.3145 53.0194C50.9426 53.1803 52.028 52.5779 52.5753 51.2073C55.3394 51.8144 57.1836 51.0234 58.1126 48.8296C62.4036 47.2521 65.2551 46.4472 66.667 46.415C63.2452 52.5319 59.7453 55.9398 56.1626 56.6435" fill="white"/>
<path fill-rule="evenodd" clip-rule="evenodd" d="M57.0181 46.2403C61.5942 43.812 65.3885 42.4139 68.4009 42.0505C68.8654 40.3626 68.1985 39.6406 66.4003 39.8751C56.7421 42.4277 48.3027 47.4177 41.0821 54.8453C40.1301 55.9721 39.9323 56.8229 40.4934 57.3978C41.1051 57.8071 41.588 57.8853 41.9421 57.637C44.582 54.7901 46.5137 52.9827 47.737 52.2238C47.4703 50.2232 48.5971 49.3125 51.1174 49.4827C52.5247 46.5577 54.4886 45.4769 57.0135 46.2403" fill="white"/>
<path fill-rule="evenodd" clip-rule="evenodd" d="M157.067 70.1419C141.927 70.0959 121.594 73.7063 96.0643 80.9729C113.808 71.8206 134.219 65.9659 158.222 63.7078C163.092 63.7997 164.784 66.3339 162.982 68.5874C161.326 69.8476 159.353 70.3627 157.067 70.1373" fill="white"/>
<path fill-rule="evenodd" clip-rule="evenodd" d="M179.865 81.9065C152.592 78.126 122.813 78.9308 90.5271 84.321C123.701 73.5177 155.228 69.1945 185.108 71.3515C189.491 72.0781 191.538 74.0787 191.248 77.3533C190.098 81.4511 186.304 82.9689 179.865 81.9065Z" fill="white"/>
<path fill-rule="evenodd" clip-rule="evenodd" d="M154.676 29.7018C158.208 29.1085 160.406 28.2899 161.262 27.2505C157.633 27.6966 155.264 27.8944 154.156 27.8346C154.124 28.9798 154.299 29.6006 154.676 29.6972" fill="white"/>
<path fill-rule="evenodd" clip-rule="evenodd" d="M181.19 28.1381C177.648 32.7602 175.234 35.0828 173.946 35.1058C175.505 33.4501 177.161 31.3115 178.913 28.69C178.361 27.4114 177.294 26.3307 175.708 25.4476C177.708 24.9785 179.539 25.8753 181.194 28.1381M173.307 25.8707C170.018 25.8937 168.377 25.9029 168.377 25.9029C173.353 25.2959 176.112 24.9049 176.655 24.7302C179.06 24.422 181.19 25.4476 183.039 27.8024C180.872 30.824 178.688 33.1466 176.485 34.77C174.53 36.1084 169.802 37.994 162.306 40.427C169.49 37.3548 173.164 34.931 174.484 33.1834C176.508 30.2859 177.483 28.8004 177.483 28.8004C176.154 26.3904 175.215 25.7558 173.311 25.8707H173.307Z" fill="white"/>
<path fill-rule="evenodd" clip-rule="evenodd" d="M97.2465 58.7132C99.9002 57.9682 101.119 54.4269 100.871 48.5032C100.296 44.1294 98.1571 42.8647 96.2485 44.7411C94.1053 47.1418 93.4154 50.6832 94.1789 55.3651C94.7768 57.775 95.5402 58.888 97.2465 58.7086M101.735 49.0413C101.938 50.7752 101.827 52.4814 101.409 54.1647C107.755 55.8894 110.929 56.754 110.929 56.754C105.732 53.4426 103.133 51.787 103.133 51.787C103.179 51.557 103.202 51.442 103.202 51.442C109.167 48.0939 112.152 46.4244 112.152 46.4244C105.208 48.1721 101.735 49.0459 101.735 49.0459V49.0413ZM100.673 27.8623C99.4173 37.5527 98.7872 42.4002 98.7872 42.4002C97.573 41.7471 96.414 41.7103 95.3011 42.299C94.9101 33.1467 94.717 28.5706 94.717 28.5706C96.2117 36.849 96.9613 40.9882 96.9613 40.9882C97.2189 41.0112 97.3477 41.025 97.3477 41.025C99.5645 32.2545 100.673 27.8669 100.673 27.8669V27.8623ZM109.995 38.1C104.513 44.3134 101.767 47.4224 101.767 47.4224C101.367 45.3942 100.737 44.0282 99.8726 43.3154C103.92 34.876 105.943 30.654 105.943 30.654C103 39.4843 101.528 43.8995 101.528 43.8995C101.694 44.1248 101.777 44.2352 101.777 44.2352C107.254 40.142 109.995 38.0954 109.995 38.0954V38.1ZM204.7 26.57C201.637 30.0377 199.756 31.8866 199.756 31.8866C199.531 30.7552 199.416 30.0929 199.048 29.4812C201.306 24.7717 202.438 22.4124 202.438 22.4124C200.796 27.3426 199.973 29.8078 199.973 29.8078C200.065 29.9319 200.111 29.9963 200.111 29.9963C203.169 27.7106 204.696 26.57 204.696 26.57H204.7ZM197.586 38.077C199.067 37.6585 199.747 35.6808 199.609 32.3787C199.287 29.9365 198.096 29.2329 197.029 30.2815C195.833 31.6198 195.447 33.5974 195.875 36.2143C196.21 37.5573 196.634 38.1828 197.59 38.0816L197.586 38.077ZM191.391 27.0713C192.103 25.4478 192.945 24.1324 193.911 23.1344C194.665 27.5312 194.881 29.8077 194.987 29.794C194.891 29.9411 194.845 30.0147 194.845 30.0147C193.189 28.635 192.03 27.6278 191.395 27.0713H191.391ZM189.399 36.6329C189.381 35.6348 189.422 34.5678 189.519 33.4273C189.638 32.8064 189.767 32.2085 189.905 31.6336L193.492 33.9378C193.584 34.0895 193.584 34.2137 193.483 34.3149C191.575 35.3635 190.167 36.1821 189.399 36.6283V36.6329ZM192.163 45.1274C191.207 44.1616 190.494 42.8969 190.034 41.324L194.394 38.2931C194.481 38.4035 194.527 38.4633 194.527 38.4633C194.242 39.3049 194.081 39.7787 194.049 39.8844L192.163 45.1274ZM197.843 46.8291C197.135 46.9855 196.339 47.0453 195.452 47.0177C195.277 46.9671 195.107 46.9119 194.941 46.8567L196.896 40.1006C197.002 40.1006 197.047 40.096 197.024 40.096C197.392 43.5407 197.705 45.8633 197.843 46.8337V46.8291ZM81.9084 56.5241C81.6877 53.3599 81.982 50.0945 82.8006 46.7325L89.9109 51.3041C90.0811 51.5754 90.0718 51.8008 89.8925 51.9755C85.7947 54.2291 82.9892 55.8802 81.9084 56.5195V56.5241ZM87.5239 71.37C87.1744 71.0067 86.8249 70.6158 86.4753 70.2019C85.3256 68.3622 84.3919 66.4858 83.6699 64.5633L91.5298 59.0996C91.6862 59.3019 91.7689 59.4031 91.7689 59.4031C91.2584 60.9162 90.9733 61.7625 90.9135 61.9464L87.5239 71.37ZM98.2997 74.3135C97.8122 74.502 97.3201 74.6952 96.828 74.8838C95.3563 75.3023 93.8799 75.2609 92.4082 74.755L96.0047 62.3328C96.1979 62.3282 96.2761 62.3236 96.2393 62.3236C97.2281 68.4726 97.9824 72.6302 98.2951 74.3135H98.2997ZM77.5576 60.7277C79.2777 70.8595 83.3617 76.682 89.8051 78.1951C88.7749 78.4159 84.5207 80.5315 77.0425 84.5419C77.0425 84.5419 80.5609 84.5649 87.5975 84.6109C114.765 67.7827 146.747 56.7816 183.301 51.1155C187.343 50.2509 195.245 49.2988 207 48.2502C203.551 48.1675 200.12 48.2043 196.703 48.356C198.919 47.4132 200.299 46.291 200.842 44.9941C200.17 45.9093 199.191 46.5164 197.898 46.8107C197.765 41.6965 197.894 38.6703 197.894 38.6703C197.208 39.1026 196.413 39.259 195.925 38.9692C195.245 43.2004 194.955 45.8265 194.854 46.8199C193.828 46.4474 192.95 45.8955 192.214 45.1734L195.567 38.7117C194.891 38.1874 194.477 37.4837 194.316 36.5915L190.025 41.278C189.657 40.004 189.45 38.5323 189.404 36.8628C192.366 36.1775 194.067 35.6302 194.067 35.6302C193.961 34.6506 194.017 33.6434 194.242 32.6086L189.937 31.491C190.328 29.8859 190.788 28.4602 191.326 27.2184C193.442 29.9917 194.592 31.5462 194.592 31.5462C195.125 30.4884 195.465 29.7296 195.907 29.3432C194.362 25.2822 193.915 23.1712 193.906 23.1298C194.697 22.3112 195.571 21.6995 196.532 21.304C196.477 22.0306 196.316 24.6245 196.5 28.9155C197.121 28.589 197.765 28.6074 198.446 28.9753C198.446 28.9753 198.864 26.6482 199.568 21.2396C199.568 21.2396 198.883 23.3092 197.645 28.2073C197.645 28.2073 197.572 28.2027 197.429 28.1889C197.429 28.1889 197.392 25.7881 196.592 21.2902C197.843 20.7843 199.232 20.6279 200.764 20.8257C196.675 18.7331 193.019 20.3887 189.795 25.7927C187.178 30.8656 186.534 36.5225 187.863 42.7635C188.981 46.0473 190.77 48.0203 193.226 48.678C192.977 48.9723 192.545 49.1655 191.933 49.2483C171.058 50.1727 141.669 57.8302 103.759 72.2255L100.719 59.3387C100.769 59.141 100.875 59.0536 101.027 59.0812C106.077 63.018 108.597 64.9865 108.597 64.9865C103.455 58.5063 100.889 55.2685 100.889 55.2685C100.388 57.0162 99.6518 58.2947 98.6814 59.0996L103.699 72.2485C101.961 72.9107 100.204 73.5822 98.4331 74.2721C98.1617 65.1014 97.803 59.9964 97.803 59.9964C96.5796 60.7691 95.531 60.8978 94.6664 60.3735L92.3622 74.7458C90.7801 74.1893 89.198 73.0993 87.6159 71.4712L93.6362 59.8676C92.4266 58.9294 91.6815 57.6647 91.3918 56.0734L83.6515 64.5219C82.7041 61.9878 82.1246 59.3847 81.9222 56.7126C87.6435 55.4111 90.9457 54.3487 90.9457 54.3487C90.7525 52.5918 90.8583 50.789 91.2584 48.9309L82.8006 46.7417C83.4123 44.2168 84.323 41.6367 85.5187 39.0014L91.6172 46.9671C92.5738 45.0676 93.4476 43.7753 94.2387 43.0854C91.3872 35.7958 89.9615 32.1533 89.9615 32.1533C91.7092 39.9718 92.583 43.8811 92.583 43.8811C92.4082 44.1478 92.3254 44.2766 92.3254 44.2766L85.5923 38.8404C86.0292 37.893 86.5029 36.9364 87.0134 35.9752C90.8629 29.1639 96.1197 26.3676 102.779 27.591C97.0257 24.0267 91.0561 25.5812 84.8748 32.2453C78.8776 39.7649 76.4446 49.262 77.5622 60.7369L77.5576 60.7277ZM199.618 35.5107C203.16 36.4765 205.22 36.9824 205.22 36.9824C202.318 35.1335 200.869 34.2091 200.869 34.2091C200.897 34.0803 200.906 34.016 200.906 34.016C204.236 32.1487 205.901 31.2151 205.901 31.2151C202.396 32.0981 200.212 32.6178 199.825 32.7098C199.816 32.489 199.802 32.2591 199.779 32.0291C199.287 29.2421 197.793 28.405 196.399 29.6146C194.831 31.1553 194.329 33.4319 194.886 36.4397C195.323 37.9896 196.072 38.7025 197.13 38.5875C197.852 38.4403 198.441 38.008 198.887 37.3411C198.68 37.7366 198.459 38.0586 198.262 38.3207C199.844 43.9685 200.488 44.6215 200.478 44.4836C199.743 39.5119 199.517 38.4219 199.517 38.4219C199.545 38.3115 199.605 38.2609 199.692 38.2793C202.079 40.8411 203.266 41.5171 203.266 41.5171C200.768 38.3667 199.664 36.6283 199.421 36.2327C199.499 36.0074 199.563 35.7682 199.618 35.5153V35.5107ZM96.437 59.6285C99.9508 58.9064 101.749 54.4177 101.183 47.8777C100.305 42.8831 97.6282 41.3883 95.1263 43.5499C92.3208 46.3094 91.4148 50.3888 92.4128 55.779C93.1947 58.5523 94.5376 59.8354 96.437 59.6285Z" fill="white"/>
<path fill-rule="evenodd" clip-rule="evenodd" d="M25.3211 87.1541C21.1865 84.712 18.0591 82.3204 15.9389 79.9795C16.6058 83.6082 17.7785 87.0575 19.4572 90.3275C23.2653 93.2664 26.1397 94.968 28.0806 95.4326C26.3329 91.2979 25.4131 88.5385 25.3211 87.1541Z" fill="white"/>
<path fill-rule="evenodd" clip-rule="evenodd" d="M38.396 104.502C37.0485 103.21 35.7377 100.703 34.4638 96.9825C31.5019 96.5916 29.3725 96.0719 28.0802 95.4326C29.8462 99.7742 31.2858 102.662 32.3941 104.093C34.8041 104.387 36.8047 104.525 38.396 104.507" fill="white"/>
<path fill-rule="evenodd" clip-rule="evenodd" d="M40.3599 97.4331C37.2003 97.3181 35.2364 97.1664 34.4592 96.9824C33.0748 93.556 32.339 91.1415 32.2516 89.7388C36.4368 90.5206 38.5294 90.9116 38.5294 90.9116C38.7824 93.579 39.394 95.7498 40.3599 97.4331Z" fill="white"/>
<path fill-rule="evenodd" clip-rule="evenodd" d="M174.176 86.0459C176.098 86.2069 177.966 86.4046 179.769 86.653C179.759 86.1931 179.75 85.9631 179.75 85.9631C176.025 85.5584 174.01 85.3468 174.01 85.3468C174.043 85.6504 174.185 85.8711 174.135 85.9815C174.148 85.9999 174.162 86.0229 174.181 86.0459M162.66 85.5584C164.541 85.5722 166.459 85.609 168.285 85.6826C168.206 85.4434 168.179 85.0709 168.133 84.7995C164.315 84.6248 162.122 84.5374 162.122 84.5374C162.149 84.5788 162.66 85.563 162.66 85.563V85.5584ZM151.691 85.793C153.388 85.701 155.563 85.5998 157.214 85.5538C157.067 85.3008 156.718 84.6754 156.58 84.4224C153.038 84.4086 150.969 84.5834 150.969 84.5834C151.042 84.703 151.668 85.7746 151.691 85.793ZM140.851 86.6116C142.548 86.4414 144.645 86.3172 146.301 86.1885C146.232 86.0459 145.34 84.7811 145.156 84.5374C141.541 84.7168 139.517 84.7857 139.517 84.7857C139.664 84.9835 140.676 86.4552 140.851 86.607V86.6116ZM130.788 87.8993C132.439 87.6648 134.2 87.4164 135.815 87.2187C135.792 87.1819 135.769 87.1405 135.746 87.0991H135.727C134.624 85.8573 134.279 85.1951 134.279 85.1951C130.898 85.5492 129.003 85.7746 129.003 85.7746C129.22 86.1839 130.517 87.8396 130.788 87.9039V87.8993ZM120.688 89.5366C122.279 89.2285 123.954 88.8974 125.503 88.649C125.352 88.4834 125.122 88.3639 124.956 88.1891C124.464 87.6694 124 87.0715 123.503 86.4966C121.116 86.8461 119.437 87.0531 118.467 87.1175C118.826 88.0235 119.552 88.81 120.647 89.4769L120.734 89.5274L120.688 89.5366ZM110.722 91.7166C112.396 91.3119 114.042 90.9302 115.671 90.5714H115.661C114.226 89.5228 113.422 88.6812 113.256 88.0419C109.853 88.7088 108.151 89.0399 108.151 89.0399C108.533 89.992 109.305 90.8428 110.478 91.5924L110.726 91.712L110.722 91.7166ZM101.156 94.1818C102.821 93.731 104.467 93.2941 106.086 92.8756H106.081L106.008 92.894C104.78 92.1581 103.768 91.2199 102.972 90.0793C100.544 90.7278 99.0125 91.013 98.0421 91.1923C99.0769 92.7606 99.8864 93.4827 100.995 94.1082L101.151 94.1818H101.156ZM91.7781 96.978C93.19 96.5181 94.6204 96.0536 96.0783 95.5937L96.0461 95.5477C94.5606 94.5957 93.5074 93.4781 93.0566 92.5077C89.9752 93.2665 88.3609 93.7356 88.3609 93.7356C88.4851 93.9702 89.106 94.7428 89.9109 95.5017C90.6375 96.187 91.5481 96.8722 91.7781 96.978ZM86.8248 98.6153L86.7191 98.4727C85.2519 97.5943 84.116 96.4905 83.3249 95.1614C81.3979 95.8006 79.7514 96.2514 78.3901 96.5089C80.2343 98.6337 81.5818 99.8295 82.4373 100.092C82.5293 100.064 85.2565 99.1396 86.8248 98.6153ZM77.5024 101.761C75.741 100.529 74.3934 99.2224 73.4552 97.8335C70.2358 98.6843 68.6261 99.112 68.6261 99.112C70.2634 101.375 71.7489 102.755 73.0873 103.256C73.1149 103.247 77.0379 101.922 77.4978 101.766L77.5024 101.761ZM63.5763 106.369C65.1584 105.868 66.7451 105.358 68.341 104.833L68.318 104.843C66.115 103.444 64.6203 101.973 63.8338 100.423C61.5711 101.039 59.9154 101.393 58.8668 101.49C59.8418 103.173 61.4285 104.797 63.6269 106.356L63.5809 106.369H63.5763ZM54.2446 109.161C55.7072 108.752 57.1697 108.329 58.6276 107.892C55.7716 105.463 54.1619 103.684 53.7939 102.557C50.4596 103.178 48.7901 103.486 48.7901 103.486C50.0042 105.477 51.8301 107.367 54.2676 109.152H54.2446V109.156V109.161ZM49.2638 110.495L49.25 110.449C47.4839 109.244 45.5707 107.174 43.5149 104.245C41.4729 104.516 39.7666 104.599 38.3961 104.498C39.2423 106.691 41.2521 109.074 44.5359 111.718C44.5589 111.732 44.7107 111.709 44.5589 111.732C44.4301 111.778 47.6219 111.061 49.2638 110.49V110.495ZM32.3942 104.084C29.4094 103.523 26.8569 102.387 24.7367 100.685C28.3884 106.208 31.3088 109.658 33.498 111.033C35.2503 111.704 37.1129 112.086 39.0905 112.183H39.0261C35.2917 108.775 33.0795 106.08 32.3896 104.088L32.3942 104.084Z" fill="white"/>
<path fill-rule="evenodd" clip-rule="evenodd" d="M40.3598 97.4331C44.1219 97.4331 45.9984 97.4331 45.9984 97.4331C46.9596 100.538 47.8886 102.557 48.79 103.495C46.9182 103.784 45.1567 104.037 43.5103 104.254C42.0569 101.549 41.0083 99.2774 40.3552 97.4331" fill="white"/>
<path fill-rule="evenodd" clip-rule="evenodd" d="M56.4706 96.2605C53.8767 96.6698 52.1888 96.8998 51.4161 96.9504C51.5817 98.4911 52.3727 100.363 53.7939 102.566C57.1742 101.853 58.8667 101.494 58.8667 101.494C57.5468 99.4293 56.7465 97.6862 56.4752 96.2605" fill="white"/>
<path fill-rule="evenodd" clip-rule="evenodd" d="M63.8291 100.423C65.6274 100.041 67.2232 99.604 68.626 99.1119C67.8671 98.0265 67.2508 96.5042 66.7817 94.5496C64.1832 95.1842 62.4999 95.5108 61.7319 95.5154C62.2562 97.4424 62.9599 99.0797 63.8291 100.423Z" fill="white"/>
<path fill-rule="evenodd" clip-rule="evenodd" d="M76.785 92.5627C75.4191 92.9123 73.0736 93.4504 71.68 93.6159C71.887 94.8439 72.6136 96.3156 73.4553 97.8333C76.0676 97.2125 77.7095 96.7709 78.3901 96.5042C77.4013 94.8209 76.8678 93.5056 76.785 92.5627Z" fill="white"/>
<path fill-rule="evenodd" clip-rule="evenodd" d="M86.6868 90.3044C84.6723 90.8977 82.8097 91.1737 81.7979 91.5002C82.2256 92.8432 82.6303 94.1953 83.3202 95.1611C86.1395 94.5126 87.8411 93.9285 88.3608 93.7354C87.6664 93.0271 87.1099 91.8819 86.6868 90.3044Z" fill="white"/>
<path fill-rule="evenodd" clip-rule="evenodd" d="M93.0565 92.5122C95.7746 92.0246 97.2739 91.4636 98.042 91.1922C97.6097 90.6495 97.0762 89.6975 96.7175 88.1338C94.8548 88.6121 93.1761 88.9432 91.6814 89.1364C92.2609 90.953 92.7208 92.0798 93.0565 92.5168" fill="white"/>
<path fill-rule="evenodd" clip-rule="evenodd" d="M107.079 86.2573C104.44 86.7586 102.678 87.0668 101.8 87.1909C102.582 89.118 102.972 90.0838 102.972 90.0838C106.422 89.3939 108.146 89.049 108.146 89.049C107.401 87.8026 107.319 87.1174 107.079 86.2619" fill="white"/>
<path fill-rule="evenodd" clip-rule="evenodd" d="M118.462 87.1129C115.505 87.7292 113.767 88.0419 113.252 88.0419C112.585 87.0255 112.208 86.1747 112.116 85.494C114.075 85.2686 115.763 85.0479 117.188 84.8225C117.538 85.7561 117.961 86.5196 118.462 87.1129Z" fill="white"/>
<path fill-rule="evenodd" clip-rule="evenodd" d="M128.999 85.7699C127.1 86.1424 125.265 86.3862 123.498 86.492C123.02 85.5629 122.735 84.7719 122.634 84.1142C126.129 83.8843 127.877 83.7693 127.877 83.7693C128.626 85.0984 128.999 85.7653 128.999 85.7653" fill="white"/>
<path fill-rule="evenodd" clip-rule="evenodd" d="M134.278 85.1904C137.769 84.919 139.512 84.7857 139.512 84.7857C139.347 84.3074 139.158 83.875 138.983 83.2266C135.299 83.4841 133.533 83.3921 133.533 83.3921C134.108 84.6937 134.274 85.1904 134.274 85.1904" fill="white"/>
<path fill-rule="evenodd" clip-rule="evenodd" d="M145.155 84.5372C147.929 84.5924 149.87 84.6062 150.969 84.5786C150.587 84.0773 150.472 83.4932 150.325 83.2587C146.577 83.2127 144.783 83.0747 144.783 83.0747C145.031 84.0497 145.155 84.5372 145.155 84.5372Z" fill="white"/>
<path fill-rule="evenodd" clip-rule="evenodd" d="M162.117 84.5327C158.424 84.4592 156.58 84.4223 156.58 84.4223C156.244 83.8015 156.124 83.3416 156.124 83.3416C159.914 83.4611 161.763 83.6727 161.763 83.6727C162.002 84.2476 162.122 84.5373 162.122 84.5373" fill="white"/>
<path fill-rule="evenodd" clip-rule="evenodd" d="M174.052 85.3467C170.028 84.9742 168.128 84.7948 168.128 84.7948C168.018 84.3165 167.963 84.0728 167.963 84.0728C171.748 84.3395 173.657 84.6522 173.657 84.6522C174.011 85.2409 174.057 85.3467 174.057 85.3467" fill="white"/>
<path fill-rule="evenodd" clip-rule="evenodd" d="M173.762 84.6201C177.616 85.0248 179.539 85.2226 179.539 85.2226C179.359 84.7397 179.272 84.5005 179.272 84.5005C175.602 84.1372 173.546 84.0176 173.546 84.0176C173.642 84.4637 173.762 84.6201 173.762 84.6201Z" fill="white"/>
<path fill-rule="evenodd" clip-rule="evenodd" d="M179.75 85.9585C179.612 85.4664 179.539 85.2227 179.539 85.2227C183.512 85.7194 185.494 85.9631 185.494 85.9631C185.517 86.4 185.531 86.6162 185.531 86.6162C181.677 86.1747 179.75 85.9585 179.75 85.9585Z" fill="white"/>
<path fill-rule="evenodd" clip-rule="evenodd" d="M71.6802 93.616C70.1119 94.0253 68.7689 94.2829 66.7821 94.545C66.1428 92.9169 65.8255 91.5326 65.8255 90.392C69.0587 89.9321 70.673 89.7021 70.673 89.7021C70.8707 91.4636 71.2203 92.8388 71.6802 93.6114" fill="white"/>
<path fill-rule="evenodd" clip-rule="evenodd" d="M81.7979 91.5004C80.4549 91.7809 78.7716 92.296 76.7848 92.5628C76.1455 90.9347 76.0535 89.9137 76.0535 88.7731C79.2867 88.3132 80.9516 87.9958 80.9516 87.9958C81.1494 89.7573 81.4437 90.6265 81.7979 91.5004Z" fill="white"/>
<path fill-rule="evenodd" clip-rule="evenodd" d="M91.6904 89.1594C90.3475 89.6055 88.4618 89.9183 86.6912 90.3092C86.3187 88.7455 86.1577 88.235 85.9323 87.0438C89.1655 86.5839 90.8626 86.2068 90.8626 86.2068C91.2121 87.9683 91.3731 88.2994 91.6904 89.1594Z" fill="white"/>
<path fill-rule="evenodd" clip-rule="evenodd" d="M101.804 87.1865C98.6768 87.6648 96.9843 87.9775 96.7176 88.1339C96.4508 86.9013 96.0507 85.9999 96.0001 85.3606C97.5362 85.0249 99.4264 84.703 101.124 84.5144C101.202 85.2641 101.519 86.676 101.804 87.1865Z" fill="white"/>
<path fill-rule="evenodd" clip-rule="evenodd" d="M122.638 84.1188C120.799 84.4592 119.106 84.6891 117.308 84.8179C117.032 83.8521 116.742 82.9277 116.705 82.2976C117.699 82.2516 118.545 82.1596 119.258 82.1136C121.231 81.9894 122.146 81.925 122.146 81.925C122.307 82.7989 122.289 83.5025 122.638 84.1188Z" fill="white"/>
<path fill-rule="evenodd" clip-rule="evenodd" d="M133.764 83.4012C131.096 83.6588 129.137 83.783 127.881 83.7738C127.628 82.463 127.587 81.8008 127.587 81.8008C131.335 81.6628 133.124 81.5984 133.124 81.5984C133.129 82.2285 133.345 82.8309 133.764 83.4012Z" fill="white"/>
<path fill-rule="evenodd" clip-rule="evenodd" d="M144.778 83.0747C143.55 83.1575 141.66 83.1851 138.983 83.2264C138.753 82.5596 138.638 81.9939 138.638 81.5248C142.414 81.5018 144.245 81.5156 144.245 81.5156C144.397 82.1365 144.608 82.7067 144.778 83.0701" fill="white"/>
<path fill-rule="evenodd" clip-rule="evenodd" d="M156.129 83.3966C152.293 83.2771 150.311 83.2633 150.32 83.2633C150.187 82.8999 150.136 82.3848 150.113 81.9663C153.944 82.0767 155.913 82.1365 155.913 82.1365C156.074 82.9275 156.129 83.4012 156.129 83.4012" fill="white"/>
<path fill-rule="evenodd" clip-rule="evenodd" d="M167.958 84.0772C163.823 83.8059 161.758 83.6725 161.758 83.6725C161.616 83.0378 161.547 82.7251 161.547 82.7251C165.585 82.978 167.599 83.1022 167.599 83.1022C167.838 83.7507 167.958 84.0772 167.958 84.0772Z" fill="white"/>
<path fill-rule="evenodd" clip-rule="evenodd" d="M46.0028 97.4377C44.8715 95.2715 44.1402 92.3925 44.1034 91.5002C47.5757 91.537 49.6407 91.5002 49.6407 91.5002C50.1788 94.2045 50.5468 95.4969 51.0251 96.3293C51.0941 96.4489 51.3424 96.8812 51.416 96.9502C48.3484 97.2859 46.5455 97.4515 46.0028 97.4377Z" fill="white"/>
<path fill-rule="evenodd" clip-rule="evenodd" d="M56.4705 96.2605C55.6887 93.7494 55.2978 91.9649 55.3667 91.1739C57.1512 91.0589 58.8069 90.9071 60.3338 90.7231C60.8259 93.2113 61.3134 94.9037 61.7319 95.5154C59.7451 95.8328 57.9928 96.0811 56.4705 96.2559" fill="white"/>
<path fill-rule="evenodd" clip-rule="evenodd" d="M107.02 86.3125C106.578 85.3789 106.348 84.6982 106.205 83.622C108.362 83.3461 110.29 83.1253 111.49 83.0471C111.628 84.3533 112 85.1535 112.244 85.572C110.611 85.9078 108.749 86.1469 107.024 86.3171" fill="white"/>
<path fill-rule="evenodd" clip-rule="evenodd" d="M70.8081 30.2583C71.3186 30.2583 71.7188 30.0698 72.0177 29.665C72.3213 29.2557 72.4592 28.8096 72.4132 28.2991C72.381 27.9312 72.2523 27.6046 71.9809 27.3425C71.705 27.0803 71.3554 26.9884 70.9783 26.9884C70.4678 26.9884 70.0723 27.1861 69.7733 27.5862C69.4698 27.991 69.3272 28.4371 69.3732 28.943C69.4054 29.3109 69.5342 29.6375 69.8055 29.8996C70.0815 30.1618 70.431 30.2537 70.8081 30.2537M62.0284 27.646H63.0494C63.2472 27.646 63.5185 27.623 63.6795 27.5081C63.7853 27.4345 63.8175 27.3471 63.8083 27.2183C63.7853 26.947 63.3713 26.9378 63.169 26.9378H62.1526L62.0284 27.646ZM61.5317 30.3043H62.7137C62.9206 30.3043 63.1736 30.2767 63.3438 30.1526C63.4541 30.0698 63.5001 29.9824 63.4863 29.8444C63.4587 29.5455 63.054 29.5363 62.824 29.5363H61.6697L61.5271 30.3043H61.5317ZM46.9847 29.0994H47.7941L47.5733 28.0784L46.9847 29.0994ZM27.6085 30.2353H28.3168C28.579 30.2353 28.8641 30.1939 29.0849 30.0468C29.2596 29.9318 29.2964 29.757 29.278 29.5547C29.2642 29.4259 29.1998 29.3293 29.0941 29.2465C28.9515 29.1362 28.7629 29.104 28.5836 29.104H27.8201L27.6085 30.2353ZM12.5004 30.2537C13.0109 30.2537 13.4111 30.0652 13.71 29.6605C14.0135 29.2511 14.1515 28.805 14.1055 28.2945C14.0733 27.9266 13.9446 27.6 13.6732 27.3379C13.3973 27.0757 13.0477 26.9838 12.6706 26.9838C12.1601 26.9838 11.7646 27.1815 11.4656 27.5816C11.1621 27.9864 11.0195 28.4325 11.0655 28.9384C11.0977 29.3063 11.2265 29.6329 11.4978 29.895C11.7738 30.1572 12.1233 30.2491 12.5004 30.2491V30.2537ZM70.7989 32.5257C69.7733 32.5257 68.8397 32.2314 68.067 31.5599C67.322 30.9114 66.9081 30.0974 66.8207 29.1316C66.7701 28.5659 66.8345 28.014 67.0184 27.4805C67.1932 26.9608 67.4646 26.4825 67.8279 26.0685C68.205 25.6408 68.6695 25.3189 69.1938 25.0843C69.7595 24.8314 70.3666 24.7164 70.9921 24.7164C72.0177 24.7164 72.9513 25.0107 73.724 25.6822C74.469 26.3307 74.883 27.1447 74.9703 28.1105C75.0209 28.6716 74.9565 29.2281 74.7726 29.7616C74.5978 30.2813 74.3265 30.7596 73.9631 31.1736C73.586 31.6013 73.1215 31.9232 72.5972 32.1578C72.0315 32.4107 71.4244 32.5257 70.7989 32.5257ZM65.2386 28.6256C65.6939 28.9246 65.9882 29.3707 66.0434 29.9778C66.1078 30.7045 65.8365 31.3069 65.2478 31.7531C64.5579 32.2774 63.5599 32.4015 62.7045 32.4015H58.6572L60.0554 24.8498H63.261C63.9784 24.8498 64.8477 24.9418 65.4502 25.3741C65.9331 25.7236 66.2274 26.1927 66.278 26.7814C66.324 27.2689 66.209 27.7242 65.8963 28.1105C65.7123 28.3359 65.4869 28.5061 65.2386 28.6348V28.6256ZM54.909 27.0252L54.8078 27.5633H58.2295L57.8478 29.6237H54.4215L54.3111 30.2123H58.1467L57.7466 32.3923H51.3952L52.7934 24.8406H59.0942L58.6802 27.0206H54.9044L54.909 27.0252ZM48.208 31.1414H45.8073L45.0576 32.3969H42.2614L46.9479 24.7946H49.2612L51.1423 32.3969H48.4932L48.208 31.1414ZM39.5801 32.5349C38.5821 32.5349 37.653 32.2727 36.8804 31.6335C36.1169 31.008 35.726 30.1801 35.6386 29.2189C35.5742 28.4739 35.6984 27.7518 36.0158 27.0757C36.3515 26.3629 36.8804 25.8018 37.5473 25.3741C38.2877 24.9004 39.1202 24.698 40.0032 24.698C40.7115 24.698 41.4013 24.8452 42.0176 25.2085C42.5971 25.5534 43.034 26.0271 43.3238 26.6296L43.4295 26.8504L41.3415 28.0002L41.2082 27.7748C40.9138 27.2781 40.5045 27.0068 39.9158 27.0068C39.3961 27.0068 38.996 27.2091 38.6741 27.6046C38.3291 28.0232 38.2003 28.5061 38.2463 29.0442C38.2785 29.3845 38.3935 29.6926 38.6557 29.9272C38.9086 30.1526 39.2029 30.2491 39.5433 30.2491C40.063 30.2491 40.4815 29.987 40.8218 29.6191L40.992 29.4351L42.8454 30.9252L42.6799 31.1276C41.898 32.0888 40.8448 32.5395 39.5847 32.5395L39.5801 32.5349ZM31.5822 32.3923L32.9665 24.8406H35.5006L34.1163 32.3923H31.5822ZM28.1926 27.0482H28.7583C29.5172 27.0482 30.276 27.2091 30.8923 27.669C31.4442 28.0784 31.7754 28.6211 31.8351 29.2971C31.9133 30.194 31.6742 30.9988 30.9705 31.5875C30.2485 32.19 29.324 32.3923 28.3858 32.3923H24.6789L26.0632 24.8406H28.602L28.1926 27.0482ZM22.0436 27.0206H20.9168L20.8248 27.5219C20.6915 28.2531 20.5259 28.9844 20.3005 29.6926C20.1488 30.171 19.9694 30.6815 19.7303 31.1276C19.5509 31.4587 19.3209 31.7668 19.0174 32.0014C18.7828 32.1808 18.5161 32.3371 18.2217 32.4107C17.9458 32.4797 17.6469 32.4981 17.3571 32.4981C16.9386 32.4981 16.4741 32.4613 16.0786 32.3233L15.8486 32.2406L16.3729 30.2721L16.6212 30.3273C16.75 30.3549 16.888 30.3595 17.0168 30.3595C17.0995 30.3595 17.2053 30.3595 17.2835 30.3365C17.3387 30.3181 17.4675 30.2031 17.5089 30.1618C17.6468 30.0238 17.748 29.8168 17.817 29.6375C17.9642 29.2557 18.0746 28.8418 18.1803 28.4463C18.3505 27.807 18.4839 27.1493 18.6035 26.5009L18.9024 24.8498H24.9687L23.5843 32.4015H21.0502L22.0344 27.0298L22.0436 27.0206ZM12.482 32.5211C11.4564 32.5211 10.5228 32.2268 9.75015 31.5553C9.00509 30.9068 8.59118 30.0928 8.50379 29.127C8.4532 28.5613 8.51759 28.0094 8.70155 27.4759C8.87632 26.9562 9.14767 26.4779 9.511 26.0639C9.88813 25.6362 10.3526 25.3143 10.8769 25.0797C11.4426 24.8268 12.0497 24.7118 12.6752 24.7118C13.7008 24.7118 14.6344 25.0061 15.4071 25.6776C16.1521 26.3261 16.5661 27.1401 16.6534 28.1059C16.704 28.667 16.6396 29.2235 16.4557 29.757C16.2809 30.2767 16.0096 30.755 15.6462 31.169C15.2691 31.5967 14.8046 31.9186 14.2803 32.1532C13.7146 32.4061 13.1075 32.5211 12.482 32.5211ZM5.41318 27.0711H3.52753L2.54792 32.3923H0L1.39814 24.8406H8.36581L6.96769 32.3923H4.41977L5.40858 27.0711H5.41318Z" fill="white"/>
<path fill-rule="evenodd" clip-rule="evenodd" d="M71.1254 18.3099L69.4421 16.8933L69.3272 17.0221C68.9776 17.4084 68.5407 17.6936 67.998 17.6936C67.6393 17.6936 67.3265 17.5878 67.069 17.3395C66.793 17.0773 66.6735 16.7416 66.6459 16.3736C66.5999 15.8033 66.7379 15.2836 67.1012 14.8283C67.4323 14.4144 67.8554 14.1845 68.3981 14.1845C69.0236 14.1845 69.4467 14.4926 69.7411 15.0215L69.8285 15.1779L71.7555 14.0833L71.6911 13.9407C71.4198 13.352 71.0104 12.8691 70.4493 12.5242C69.8607 12.1608 69.1984 12.0137 68.5085 12.0137C67.6485 12.0137 66.8344 12.2206 66.117 12.6943C65.4593 13.1267 64.9442 13.6924 64.6177 14.4006C64.3095 15.0767 64.1761 15.8125 64.2359 16.5484C64.3095 17.4958 64.6683 18.3237 65.4041 18.9583C66.1446 19.593 67.0368 19.8598 68.0072 19.8598C69.2398 19.8598 70.2516 19.3999 71.0104 18.4432L71.1162 18.3099H71.1254ZM63.4265 18.3099L61.7432 16.8933L61.6282 17.0221C61.2787 17.4084 60.8418 17.6936 60.2991 17.6936C59.9403 17.6936 59.6276 17.5878 59.3701 17.3395C59.0941 17.0773 58.9745 16.7416 58.9469 16.3736C58.9009 15.8033 59.0389 15.2836 59.4022 14.8283C59.7334 14.4144 60.1565 14.1845 60.6992 14.1845C61.3247 14.1845 61.7478 14.4926 62.0422 15.0215L62.1295 15.1779L64.0566 14.0833L63.9922 13.9407C63.7208 13.352 63.3115 12.8691 62.7504 12.5242C62.1617 12.1608 61.4994 12.0137 60.8096 12.0137C59.9495 12.0137 59.1355 12.2206 58.418 12.6943C57.7604 13.1267 57.2453 13.6924 56.9187 14.4006C56.6106 15.0767 56.4772 15.8125 56.537 16.5484C56.6106 17.4958 56.9693 18.3237 57.7052 18.9583C58.4456 19.593 59.3379 19.8598 60.3083 19.8598C61.5408 19.8598 62.5526 19.3999 63.3115 18.4432L63.4173 18.3099H63.4265ZM51.8183 17.7028C51.4182 17.7028 51.0594 17.597 50.7743 17.3119C50.4846 17.0267 50.3558 16.6634 50.3282 16.2679C50.2868 15.7298 50.4386 15.2469 50.7559 14.8099C51.0686 14.3822 51.478 14.1615 52.0161 14.1615C52.4162 14.1615 52.7749 14.2672 53.0601 14.5524C53.3452 14.8375 53.4786 15.2009 53.5062 15.5964C53.5476 16.1345 53.405 16.622 53.0831 17.0589C52.7703 17.4866 52.3518 17.7028 51.8137 17.7028H51.8183ZM51.7861 19.846C52.3932 19.846 52.9819 19.7264 53.5338 19.4735C54.0443 19.2389 54.4996 18.9124 54.8629 18.4846C55.2216 18.0661 55.4838 17.5878 55.6586 17.0681C55.8379 16.53 55.9069 15.9781 55.8655 15.4124C55.7919 14.4558 55.4056 13.6372 54.6881 12.9841C53.9523 12.3126 53.0555 12.0137 52.0529 12.0137C51.4458 12.0137 50.8571 12.1332 50.3052 12.3862C49.7947 12.6254 49.3394 12.9473 48.976 13.375C48.6173 13.7935 48.3552 14.2718 48.1804 14.7915C48.001 15.3296 47.932 15.8815 47.9734 16.4472C48.047 17.4038 48.4333 18.2225 49.1508 18.8756C49.8867 19.547 50.7835 19.846 51.7861 19.846ZM43.4755 15.6746L43.7422 14.2213C43.7422 14.1983 43.7652 14.1799 43.7928 14.1799H44.3309C44.5885 14.1799 44.8736 14.2258 45.0668 14.4098C45.1818 14.5156 45.2416 14.6444 45.2553 14.8007C45.2783 15.0721 45.2002 15.2974 44.9794 15.4676C44.7126 15.6792 44.3263 15.7344 43.9906 15.7344H43.5261C43.5261 15.7344 43.4985 15.7298 43.4847 15.716C43.4755 15.7022 43.4709 15.6884 43.4755 15.6746ZM41.8014 12.1516L40.3849 19.7126H42.7258L43.1075 17.6844C43.1075 17.6614 43.1306 17.643 43.1581 17.643H44.1286C45.0714 17.643 46.0188 17.4406 46.7455 16.8106C47.4307 16.2127 47.6791 15.4308 47.6101 14.5478C47.5641 13.9361 47.3387 13.3888 46.8834 12.9611C46.1982 12.3126 45.1864 12.1516 44.2711 12.1516H41.8014ZM36.494 12.1516H34.1531L32.7365 19.7126H35.0775L35.3902 17.9971C35.3902 17.9971 35.3948 17.9787 35.404 17.9695L36.2549 17.1141C36.2549 17.1141 36.2825 17.0957 36.3008 17.1003C36.3192 17.1003 36.333 17.1141 36.3376 17.1279L37.4828 19.708H40.0077L38.0669 15.5504C38.0669 15.5504 38.0623 15.509 38.0761 15.4952L41.3599 12.147H38.3567L36.1399 14.511C36.1399 14.511 36.0985 14.534 36.0801 14.5202C36.0617 14.511 36.0479 14.488 36.0525 14.465L36.494 12.147V12.1516ZM28.4593 17.7028C28.0592 17.7028 27.7005 17.597 27.4153 17.3119C27.1256 17.0267 26.9968 16.6634 26.9692 16.2679C26.9278 15.7298 27.075 15.2469 27.3969 14.8099C27.7097 14.3822 28.119 14.1615 28.6571 14.1615C29.0572 14.1615 29.416 14.2672 29.7011 14.5524C29.9908 14.8375 30.1196 15.2009 30.1472 15.5964C30.1886 16.1345 30.046 16.622 29.7241 17.0589C29.4114 17.4866 28.9974 17.7028 28.4547 17.7028H28.4593ZM28.4272 19.846C29.0342 19.846 29.6229 19.7264 30.1748 19.4735C30.6853 19.2389 31.1406 18.9124 31.504 18.4846C31.8627 18.0661 32.1248 17.5878 32.2996 17.0681C32.479 16.53 32.548 15.9781 32.5066 15.4124C32.433 14.4558 32.0467 13.6372 31.3292 12.9841C30.5933 12.3126 29.6965 12.0137 28.6939 12.0137C28.0868 12.0137 27.4981 12.1332 26.9462 12.3862C26.4357 12.6254 25.9804 12.9473 25.6171 13.375C25.2583 13.7935 24.9962 14.2718 24.8214 14.7915C24.6421 15.3296 24.5731 15.8815 24.6145 16.4472C24.6881 17.4038 25.0744 18.2225 25.7918 18.8756C26.5323 19.547 27.4245 19.846 28.4272 19.846ZM19.0541 19.7126H21.3951L22.4069 14.2948C22.4069 14.2718 22.4299 14.2534 22.4575 14.2534H24.5409L24.9272 12.1516H18.3551L17.9595 14.2534H20.0245C20.0245 14.2534 20.0521 14.258 20.0613 14.2718C20.0705 14.2856 20.0751 14.2994 20.0705 14.3132L19.0541 19.7126ZM13.4156 14.9663L13.5628 14.1523C13.5628 14.1293 13.5858 14.1109 13.6134 14.1109H14.6436C14.9149 14.1109 15.3288 14.1385 15.3564 14.4834C15.3702 14.6444 15.3196 14.7685 15.1909 14.8651C15.0115 14.9985 14.7355 15.0261 14.5194 15.0261H13.4662C13.4662 15.0261 13.4386 15.0215 13.4294 15.0077C13.4202 14.9939 13.4156 14.9801 13.4202 14.9663H13.4156ZM12.9005 17.6936L13.0661 16.8152C13.0661 16.7922 13.0891 16.7738 13.1167 16.7738H14.2802C14.5746 16.7738 14.9885 16.8106 15.0161 17.1785C15.0299 17.3487 14.9701 17.4728 14.8321 17.5786C14.6482 17.7166 14.386 17.7534 14.1607 17.7534H12.9511C12.9511 17.7534 12.9235 17.7488 12.9143 17.735C12.9051 17.7212 12.9005 17.7074 12.9051 17.6936H12.9005ZM11.6541 12.1516L10.2376 19.7126H14.1285C14.9609 19.7126 15.9267 19.593 16.5936 19.0641C17.1593 18.6226 17.4122 18.0339 17.3571 17.3257C17.3111 16.7462 17.0489 16.2863 16.5522 15.9689C16.5384 15.9597 16.5292 15.9413 16.5292 15.9229C16.5292 15.9045 16.5384 15.8907 16.5568 15.8815C16.8281 15.7482 17.0673 15.5688 17.2513 15.3342C17.5502 14.9571 17.656 14.511 17.6192 14.0373C17.5732 13.467 17.3111 13.0117 16.8511 12.6667C16.2809 12.239 15.4392 12.147 14.7448 12.147H11.6495L11.6541 12.1516ZM5.74885 16.4426L6.42034 15.2515C6.42034 15.2515 6.45252 15.2239 6.47092 15.2285C6.49392 15.2285 6.50771 15.2469 6.51231 15.2699L6.75147 16.461C6.75147 16.461 6.75146 16.4886 6.74227 16.5024C6.73307 16.5162 6.71928 16.5208 6.70548 16.5208H5.79485C5.79485 16.5208 5.76265 16.5116 5.74885 16.4978C5.73966 16.484 5.73966 16.4656 5.74885 16.4472V16.4426ZM7.39074 19.7126H9.82829L8.08522 12.1011H5.91443L1.3291 19.7126H3.88621L4.62208 18.4524C4.62208 18.4524 4.64967 18.4294 4.66807 18.4294H7.08261C7.10561 18.4294 7.1286 18.4478 7.13319 18.4708L7.39535 19.7172L7.39074 19.7126Z" fill="white"/>
</svg>
